<?xml version="1.0" standalone="no"?>
<!DOCTYPE svg PUBLIC "-//W3C//DTD SVG 1.1//EN" "http://www.w3.org/Graphics/SVG/1.1/DTD/svg11.dtd">
<svg width="1000px" height="1000px" version="1.1" xmlns="http://www.w3.org/2000/svg" xmlns:xlink="http://www.w3.org/1999/xlink">
<g id="ideograms">
<path d="M500.000,365.000 A135.000,135.000 40.000 0,1 534.941,369.600 L541.411,345.452 A160.000,160.000 0.000 0,0 500.000,340.000 Z" stroke-linecap="round" style="stroke-width: 2.0; stroke: rgb(0,0,0);  fill: rgb(8,48,107); " />
<text x="524.0" y="317.9" font-size="31.2px" font-family="CMUBright-Roman" style="text-anchor:middle;fill:rgb(0,0,0)" transform="rotate(367.5,524.0,317.9)">0H</text>
<path d="M500.000,365.000 A135.000,135.000 40.000 0,1 534.941,369.600 L541.411,345.452 A160.000,160.000 0.000 0,0 500.000,340.000 Z" stroke-linecap="round" style="stroke-width: 2.0; stroke: rgb(0,0,0);  fill: none; " />
<path d="M538.046,358.009 A147.000,147.000 40.000 0,1 573.500,372.694 L586.000,351.044 A172.000,172.000 0.000 0,0 544.517,333.861 Z" stroke-linecap="round" style="stroke-width: 2.0; stroke: rgb(0,0,0);  fill: rgb(8,81,156); " />
<text x="575.7" y="317.3" font-size="31.2px" font-family="CMUBright-Roman" style="text-anchor:middle;fill:rgb(0,0,0)" transform="rotate(382.5,575.7,317.3)">1H</text>
<path d="M538.046,358.009 A147.000,147.000 40.000 0,1 573.500,372.694 L586.000,351.044 A172.000,172.000 0.000 0,0 544.517,333.861 Z" stroke-linecap="round" style="stroke-width: 2.0; stroke: rgb(0,0,0);  fill: none; " />
<path d="M577.500,365.766 A155.000,155.000 40.000 0,1 609.602,390.398 L627.279,372.721 A180.000,180.000 0.000 0,0 590.000,344.115 Z" stroke-linecap="round" style="stroke-width: 2.0; stroke: rgb(0,0,0);  fill: rgb(33,113,181); " />
<text x="626.1" y="335.7" font-size="31.2px" font-family="CMUBright-Roman" style="text-anchor:middle;fill:rgb(0,0,0)" transform="rotate(397.5,626.1,335.7)">2H</text>
<path d="M577.500,365.766 A155.000,155.000 40.000 0,1 609.602,390.398 L627.279,372.721 A180.000,180.000 0.000 0,0 590.000,344.115 Z" stroke-linecap="round" style="stroke-width: 2.0; stroke: rgb(0,0,0);  fill: none; " />
<path d="M765.165,234.835 A375.000,375.000 40.000 0,1 824.760,312.500 L846.410,300.000 A400.000,400.000 0.000 0,0 782.843,217.157 Z" stroke-linecap="round" style="stroke-width: 2.0; stroke: rgb(0,0,0);  fill: rgb(66,146,198); " />
<text x="869.4" y="216.5" font-size="31.2px" font-family="CMUBright-Roman" style="text-anchor:middle;fill:rgb(0,0,0)" transform="rotate(412.5,869.4,216.5)">3H</text>
<path d="M765.165,234.835 A375.000,375.000 40.000 0,1 824.760,312.500 L846.410,300.000 A400.000,400.000 0.000 0,0 782.843,217.157 Z" stroke-linecap="round" style="stroke-width: 2.0; stroke: rgb(0,0,0);  fill: none; " />
<path d="M824.760,312.500 A375.000,375.000 40.000 0,1 862.222,402.943 L886.370,396.472 A400.000,400.000 0.000 0,0 846.410,300.000 Z" stroke-linecap="round" style="stroke-width: 2.0; stroke: rgb(0,0,0);  fill: rgb(107,174,214); " />
<text x="930.2" y="321.8" font-size="31.2px" font-family="CMUBright-Roman" style="text-anchor:middle;fill:rgb(0,0,0)" transform="rotate(427.5,930.2,321.8)">4H</text>
<path d="M824.760,312.500 A375.000,375.000 40.000 0,1 862.222,402.943 L886.370,396.472 A400.000,400.000 0.000 0,0 846.410,300.000 Z" stroke-linecap="round" style="stroke-width: 2.0; stroke: rgb(0,0,0);  fill: none; " />
<path d="M862.222,402.943 A375.000,375.000 40.000 0,1 875.000,500.000 L900.000,500.000 A400.000,400.000 0.000 0,0 886.370,396.472 Z" stroke-linecap="round" style="stroke-width: 2.0; stroke: rgb(0,0,0);  fill: rgb(158,202,225); " />
<text x="961.6" y="439.2" font-size="31.2px" font-family="CMUBright-Roman" style="text-anchor:middle;fill:rgb(0,0,0)" transform="rotate(442.5,961.6,439.2)">5H</text>
<path d="M862.222,402.943 A375.000,375.000 40.000 0,1 875.000,500.000 L900.000,500.000 A400.000,400.000 0.000 0,0 886.370,396.472 Z" stroke-linecap="round" style="stroke-width: 2.0; stroke: rgb(0,0,0);  fill: none; " />
<path d="M875.000,500.000 A375.000,375.000 40.000 0,1 862.222,597.057 L886.370,603.528 A400.000,400.000 0.000 0,0 900.000,500.000 Z" stroke-linecap="round" style="stroke-width: 2.0; stroke: rgb(0,0,0);  fill: rgb(236,112,20); " />
<text x="985.4" y="563.9" font-size="31.2px" font-family="CMUBright-Roman" style="text-anchor:middle;fill:rgb(0,0,0)" transform="rotate(-82.5,985.4,563.9)">6H</text>
<path d="M875.000,500.000 A375.000,375.000 40.000 0,1 862.222,597.057 L886.370,603.528 A400.000,400.000 0.000 0,0 900.000,500.000 Z" stroke-linecap="round" style="stroke-width: 2.0; stroke: rgb(0,0,0);  fill: none; " />
<path d="M862.222,597.057 A375.000,375.000 40.000 0,1 824.760,687.500 L846.410,700.000 A400.000,400.000 0.000 0,0 886.370,603.528 Z" stroke-linecap="round" style="stroke-width: 2.0; stroke: rgb(0,0,0);  fill: rgb(254,153,41); " />
<text x="951.4" y="687.0" font-size="31.2px" font-family="CMUBright-Roman" style="text-anchor:middle;fill:rgb(0,0,0)" transform="rotate(-67.5,951.4,687.0)">7H</text>
<path d="M862.222,597.057 A375.000,375.000 40.000 0,1 824.760,687.500 L846.410,700.000 A400.000,400.000 0.000 0,0 886.370,603.528 Z" stroke-linecap="round" style="stroke-width: 2.0; stroke: rgb(0,0,0);  fill: none; " />
<path d="M824.760,687.500 A375.000,375.000 40.000 0,1 765.165,765.165 L782.843,782.843 A400.000,400.000 0.000 0,0 846.410,700.000 Z" stroke-linecap="round" style="stroke-width: 2.0; stroke: rgb(0,0,0);  fill: rgb(254,196,79); " />
<text x="888.4" y="798.1" font-size="31.2px" font-family="CMUBright-Roman" style="text-anchor:middle;fill:rgb(0,0,0)" transform="rotate(-52.5,888.4,798.1)">8H</text>
<path d="M824.760,687.500 A375.000,375.000 40.000 0,1 765.165,765.165 L782.843,782.843 A400.000,400.000 0.000 0,0 846.410,700.000 Z" stroke-linecap="round" style="stroke-width: 2.0; stroke: rgb(0,0,0);  fill: none; " />
<path d="M765.165,765.165 A375.000,375.000 40.000 0,1 687.500,824.760 L700.000,846.410 A400.000,400.000 0.000 0,0 782.843,782.843 Z" stroke-linecap="round" style="stroke-width: 2.0; stroke: rgb(0,0,0);  fill: rgb(254,227,145); " />
<text x="798.1" y="888.4" font-size="31.2px" font-family="CMUBright-Roman" style="text-anchor:middle;fill:rgb(0,0,0)" transform="rotate(-37.5,798.1,888.4)">9H</text>
<path d="M765.165,765.165 A375.000,375.000 40.000 0,1 687.500,824.760 L700.000,846.410 A400.000,400.000 0.000 0,0 782.843,782.843 Z" stroke-linecap="round" style="stroke-width: 2.0; stroke: rgb(0,0,0);  fill: none; " />
<path d="M687.500,824.760 A375.000,375.000 40.000 0,1 597.057,862.222 L603.528,886.370 A400.000,400.000 0.000 0,0 700.000,846.410 Z" stroke-linecap="round" style="stroke-width: 2.0; stroke: rgb(0,0,0);  fill: rgb(255,247,188); " />
<text x="687.4" y="952.4" font-size="31.2px" font-family="CMUBright-Roman" style="text-anchor:middle;fill:rgb(0,0,0)" transform="rotate(-22.5,687.4,952.4)">10H</text>
<path d="M687.500,824.760 A375.000,375.000 40.000 0,1 597.057,862.222 L603.528,886.370 A400.000,400.000 0.000 0,0 700.000,846.410 Z" stroke-linecap="round" style="stroke-width: 2.0; stroke: rgb(0,0,0);  fill: none; " />
<path d="M597.057,862.222 A375.000,375.000 40.000 0,1 500.000,875.000 L500.000,900.000 A400.000,400.000 0.000 0,0 603.528,886.370 Z" stroke-linecap="round" style="stroke-width: 2.0; stroke: rgb(0,0,0);  fill: rgb(255,255,229); " />
<text x="563.8" y="984.4" font-size="31.2px" font-family="CMUBright-Roman" style="text-anchor:middle;fill:rgb(0,0,0)" transform="rotate(-7.5,563.8,984.4)">11H</text>
<path d="M597.057,862.222 A375.000,375.000 40.000 0,1 500.000,875.000 L500.000,900.000 A400.000,400.000 0.000 0,0 603.528,886.370 Z" stroke-linecap="round" style="stroke-width: 2.0; stroke: rgb(0,0,0);  fill: none; " />
<path d="M500.000,875.000 A375.000,375.000 40.000 0,1 402.943,862.222 L396.472,886.370 A400.000,400.000 0.000 0,0 500.000,900.000 Z" stroke-linecap="round" style="stroke-width: 2.0; stroke: rgb(0,0,0);  fill: rgb(255,255,229); " />
<text x="436.2" y="984.4" font-size="31.2px" font-family="CMUBright-Roman" style="text-anchor:middle;fill:rgb(0,0,0)" transform="rotate(7.5,436.2,984.4)">12H</text>
<path d="M500.000,875.000 A375.000,375.000 40.000 0,1 402.943,862.222 L396.472,886.370 A400.000,400.000 0.000 0,0 500.000,900.000 Z" stroke-linecap="round" style="stroke-width: 2.0; stroke: rgb(0,0,0);  fill: none; " />
<path d="M402.943,862.222 A375.000,375.000 40.000 0,1 312.500,824.760 L300.000,846.410 A400.000,400.000 0.000 0,0 396.472,886.370 Z" stroke-linecap="round" style="stroke-width: 2.0; stroke: rgb(0,0,0);  fill: rgb(255,247,188); " />
<text x="312.6" y="952.4" font-size="31.2px" font-family="CMUBright-Roman" style="text-anchor:middle;fill:rgb(0,0,0)" transform="rotate(22.5,312.6,952.4)">13H</text>
<path d="M402.943,862.222 A375.000,375.000 40.000 0,1 312.500,824.760 L300.000,846.410 A400.000,400.000 0.000 0,0 396.472,886.370 Z" stroke-linecap="round" style="stroke-width: 2.0; stroke: rgb(0,0,0);  fill: none; " />
<path d="M312.500,824.760 A375.000,375.000 40.000 0,1 234.835,765.165 L217.157,782.843 A400.000,400.000 0.000 0,0 300.000,846.410 Z" stroke-linecap="round" style="stroke-width: 2.0; stroke: rgb(0,0,0);  fill: rgb(254,227,145); " />
<text x="202.5" y="887.7" font-size="31.2px" font-family="CMUBright-Roman" style="text-anchor:middle;fill:rgb(0,0,0)" transform="rotate(37.5,202.5,887.7)">14H</text>
<path d="M312.500,824.760 A375.000,375.000 40.000 0,1 234.835,765.165 L217.157,782.843 A400.000,400.000 0.000 0,0 300.000,846.410 Z" stroke-linecap="round" style="stroke-width: 2.0; stroke: rgb(0,0,0);  fill: none; " />
<path d="M234.835,765.165 A375.000,375.000 40.000 0,1 175.240,687.500 L153.590,700.000 A400.000,400.000 0.000 0,0 217.157,782.843 Z" stroke-linecap="round" style="stroke-width: 2.0; stroke: rgb(0,0,0);  fill: rgb(254,196,79); " />
<text x="111.6" y="798.1" font-size="31.2px" font-family="CMUBright-Roman" style="text-anchor:middle;fill:rgb(0,0,0)" transform="rotate(52.5,111.6,798.1)">15H</text>
<path d="M234.835,765.165 A375.000,375.000 40.000 0,1 175.240,687.500 L153.590,700.000 A400.000,400.000 0.000 0,0 217.157,782.843 Z" stroke-linecap="round" style="stroke-width: 2.0; stroke: rgb(0,0,0);  fill: none; " />
<path d="M175.240,687.500 A375.000,375.000 40.000 0,1 137.778,597.057 L113.630,603.528 A400.000,400.000 0.000 0,0 153.590,700.000 Z" stroke-linecap="round" style="stroke-width: 2.0; stroke: rgb(0,0,0);  fill: rgb(254,153,41); " />
<text x="47.6" y="687.4" font-size="31.2px" font-family="CMUBright-Roman" style="text-anchor:middle;fill:rgb(0,0,0)" transform="rotate(67.5,47.6,687.4)">16H</text>
<path d="M175.240,687.500 A375.000,375.000 40.000 0,1 137.778,597.057 L113.630,603.528 A400.000,400.000 0.000 0,0 153.590,700.000 Z" stroke-linecap="round" style="stroke-width: 2.0; stroke: rgb(0,0,0);  fill: none; " />
<path d="M137.778,597.057 A375.000,375.000 40.000 0,1 125.000,500.000 L100.000,500.000 A400.000,400.000 0.000 0,0 113.630,603.528 Z" stroke-linecap="round" style="stroke-width: 2.0; stroke: rgb(0,0,0);  fill: rgb(236,112,20); " />
<text x="15.6" y="563.8" font-size="31.2px" font-family="CMUBright-Roman" style="text-anchor:middle;fill:rgb(0,0,0)" transform="rotate(82.5,15.6,563.8)">17H</text>
<path d="M137.778,597.057 A375.000,375.000 40.000 0,1 125.000,500.000 L100.000,500.000 A400.000,400.000 0.000 0,0 113.630,603.528 Z" stroke-linecap="round" style="stroke-width: 2.0; stroke: rgb(0,0,0);  fill: none; " />
<path d="M125.000,500.000 A375.000,375.000 40.000 0,1 137.778,402.943 L113.630,396.472 A400.000,400.000 0.000 0,0 100.000,500.000 Z" stroke-linecap="round" style="stroke-width: 2.0; stroke: rgb(0,0,0);  fill: rgb(158,202,225); " />
<text x="38.4" y="439.2" font-size="31.2px" font-family="CMUBright-Roman" style="text-anchor:middle;fill:rgb(0,0,0)" transform="rotate(-82.5,38.4,439.2)">18H</text>
<path d="M125.000,500.000 A375.000,375.000 40.000 0,1 137.778,402.943 L113.630,396.472 A400.000,400.000 0.000 0,0 100.000,500.000 Z" stroke-linecap="round" style="stroke-width: 2.0; stroke: rgb(0,0,0);  fill: none; " />
<path d="M137.778,402.943 A375.000,375.000 40.000 0,1 175.240,312.500 L153.590,300.000 A400.000,400.000 0.000 0,0 113.630,396.472 Z" stroke-linecap="round" style="stroke-width: 2.0; stroke: rgb(0,0,0);  fill: rgb(107,174,214); " />
<text x="69.8" y="321.8" font-size="31.2px" font-family="CMUBright-Roman" style="text-anchor:middle;fill:rgb(0,0,0)" transform="rotate(-67.5,69.8,321.8)">19H</text>
<path d="M137.778,402.943 A375.000,375.000 40.000 0,1 175.240,312.500 L153.590,300.000 A400.000,400.000 0.000 0,0 113.630,396.472 Z" stroke-linecap="round" style="stroke-width: 2.0; stroke: rgb(0,0,0);  fill: none; " />
<path d="M175.240,312.500 A375.000,375.000 40.000 0,1 234.835,234.835 L217.157,217.157 A400.000,400.000 0.000 0,0 153.590,300.000 Z" stroke-linecap="round" style="stroke-width: 2.0; stroke: rgb(0,0,0);  fill: rgb(66,146,198); " />
<text x="130.6" y="216.5" font-size="31.2px" font-family="CMUBright-Roman" style="text-anchor:middle;fill:rgb(0,0,0)" transform="rotate(-52.5,130.6,216.5)">20H</text>
<path d="M175.240,312.500 A375.000,375.000 40.000 0,1 234.835,234.835 L217.157,217.157 A400.000,400.000 0.000 0,0 153.590,300.000 Z" stroke-linecap="round" style="stroke-width: 2.0; stroke: rgb(0,0,0);  fill: none; " />
<path d="M234.835,234.835 A375.000,375.000 40.000 0,1 312.500,175.240 L300.000,153.590 A400.000,400.000 0.000 0,0 217.157,217.157 Z" stroke-linecap="round" style="stroke-width: 2.0; stroke: rgb(0,0,0);  fill: rgb(33,113,181); " />
<text x="216.5" y="130.6" font-size="31.2px" font-family="CMUBright-Roman" style="text-anchor:middle;fill:rgb(0,0,0)" transform="rotate(-37.5,216.5,130.6)">21H</text>
<path d="M234.835,234.835 A375.000,375.000 40.000 0,1 312.500,175.240 L300.000,153.590 A400.000,400.000 0.000 0,0 217.157,217.157 Z" stroke-linecap="round" style="stroke-width: 2.0; stroke: rgb(0,0,0);  fill: none; " />
<path d="M312.500,175.240 A375.000,375.000 40.000 0,1 402.943,137.778 L396.472,113.630 A400.000,400.000 0.000 0,0 300.000,153.590 Z" stroke-linecap="round" style="stroke-width: 2.0; stroke: rgb(0,0,0);  fill: rgb(8,81,156); " />
<text x="321.8" y="69.8" font-size="31.2px" font-family="CMUBright-Roman" style="text-anchor:middle;fill:rgb(0,0,0)" transform="rotate(-22.5,321.8,69.8)">22H</text>
<path d="M312.500,175.240 A375.000,375.000 40.000 0,1 402.943,137.778 L396.472,113.630 A400.000,400.000 0.000 0,0 300.000,153.590 Z" stroke-linecap="round" style="stroke-width: 2.0; stroke: rgb(0,0,0);  fill: none; " />
<path d="M402.943,137.778 A375.000,375.000 40.000 0,1 500.000,125.000 L500.000,100.000 A400.000,400.000 0.000 0,0 396.472,113.630 Z" stroke-linecap="round" style="stroke-width: 2.0; stroke: rgb(0,0,0);  fill: rgb(8,48,107); " />
<text x="439.2" y="38.4" font-size="31.2px" font-family="CMUBright-Roman" style="text-anchor:middle;fill:rgb(0,0,0)" transform="rotate(-7.5,439.2,38.4)">23H</text>
<path d="M402.943,137.778 A375.000,375.000 40.000 0,1 500.000,125.000 L500.000,100.000 A400.000,400.000 0.000 0,0 396.472,113.630 Z" stroke-linecap="round" style="stroke-width: 2.0; stroke: rgb(0,0,0);  fill: none; " />
</g>
</svg>
